<?xml version="1.0" encoding="UTF-8" standalone="no"?>
<svg
   data-name="Layer 1"
   width="590.42755"
   height="353.37497"
   viewBox="0 0 590.42755 353.37497"
   version="1.1"
   id="svg74"
   sodipodi:docname="01_once_upon_a_time.svg"
   inkscape:version="1.1.1 (3bf5ae0d25, 2021-09-20)"
   inkscape:export-filename="/home/adina/repos/ohbm-2022/video/01_once_upon_a_time.png"
   inkscape:export-xdpi="300"
   inkscape:export-ydpi="300"
   xmlns:inkscape="http://www.inkscape.org/namespaces/inkscape"
   xmlns:sodipodi="http://sodipodi.sourceforge.net/DTD/sodipodi-0.dtd"
   xmlns="http://www.w3.org/2000/svg"
   xmlns:svg="http://www.w3.org/2000/svg">
  <defs
     id="defs78" />
  <sodipodi:namedview
     id="namedview76"
     pagecolor="#ffffff"
     bordercolor="#666666"
     borderopacity="1.0"
     inkscape:pageshadow="2"
     inkscape:pageopacity="0.0"
     inkscape:pagecheckerboard="0"
     showgrid="false"
     fit-margin-top="0"
     fit-margin-left="0"
     fit-margin-right="0"
     fit-margin-bottom="0"
     inkscape:zoom="2.4913479"
     inkscape:cx="277.1592"
     inkscape:cy="241.63626"
     inkscape:window-width="2560"
     inkscape:window-height="1371"
     inkscape:window-x="0"
     inkscape:window-y="1472"
     inkscape:window-maximized="1"
     inkscape:current-layer="svg74" />
  <g
     id="g1403"
     transform="translate(-537.71278,-253.67573)">
    <path
       d="m 918.36477,678.837 0.62262,-1.15126 c -8.34812,-4.51495 -18.73781,-10.13354 -24.16445,-19.35423 -5.34945,-9.08964 -5.46946,-21.43268 -0.3132,-32.21247 4.38806,-9.17433 12.44869,-17.39365 23.31031,-23.76971 2.1424,-1.2577 4.3914,-2.44956 6.56641,-3.60242 5.25725,-2.78612 10.69349,-5.66748 15.176,-9.75508 6.17376,-5.63008 10.845,-15.078 7.3634,-23.49358 a 15.61545,15.61545 0 0 0 -13.535,-9.47 l -0.0738,1.30724 a 14.30953,14.30953 0 0 1 12.40281,8.67191 c 3.23533,7.82044 -1.20354,16.695 -7.03947,22.01726 -4.35992,3.97574 -9.72169,6.81747 -14.90687,9.56555 -2.18731,1.15925 -4.44926,2.35814 -6.61627,3.63022 -11.08759,6.50871 -19.32737,14.923 -23.82841,24.33353 -5.34164,11.16748 -5.2015,23.98164 0.36594,33.44172 5.61148,9.53451 16.17887,15.24962 24.67002,19.84132 z"
       transform="translate(-251.25787,-219.38283)"
       fill="#f1f1f1"
       id="path26" />
    <ellipse
       cx="673.83563"
       cy="337.98148"
       rx="11.45514"
       ry="5.56393"
       fill="#f1f1f1"
       id="ellipse28" />
    <ellipse
       cx="664.67151"
       cy="374.63791"
       rx="11.45514"
       ry="5.56393"
       fill="#f1f1f1"
       id="ellipse30" />
    <ellipse
       cx="685.61798"
       cy="380.52914"
       rx="11.45514"
       ry="5.56393"
       fill="#f1f1f1"
       id="ellipse32" />
    <ellipse
       cx="652.88904"
       cy="411.29434"
       rx="11.45514"
       ry="5.56393"
       fill="#f1f1f1"
       id="ellipse34" />
    <ellipse
       cx="629.97876"
       cy="411.29434"
       rx="11.45514"
       ry="5.56393"
       fill="#f1f1f1"
       id="ellipse36" />
  </g>
  <g
     id="g1584"
     transform="matrix(0.68372003,0,0,0.68372003,1.0466844,-216.02752)">
    <path
       d="m 876.08,618.72 2,-1.28 0.59,-0.38 a 19.55,19.55 0 0 1 -2,-38.1 l -0.1,8.06 4.43,-8.77 v 0 a 19.56,19.56 0 0 1 20.45,18.63 c 0,0.38 0,0.74 0,1.11 a 23.3,23.3 0 0 0 3.86,-5.7 c 1.88,-4.19 1.91,-8.92 1.77,-14.68 -0.3,-11.4 -0.79,-22.89 -1.43,-34.35 a 19.54,19.54 0 0 1 -17.37,-18.51 17.38,17.38 0 0 1 0,-1.77 c 0,-0.15 0,-0.3 0,-0.44 0,-0.57 0.09,-1.13 0.18,-1.69 a 2.56,2.56 0 0 1 0,-0.27 c 0.07,-0.47 0.17,-0.93 0.28,-1.39 0,-0.17 0.09,-0.34 0.13,-0.51 0.14,-0.5 0.29,-1 0.47,-1.48 0.06,-0.16 0.12,-0.31 0.19,-0.47 0.14,-0.36 0.29,-0.71 0.45,-1.06 0.08,-0.18 0.16,-0.37 0.25,-0.55 l 0.07,-0.14 v 0 a 19.57,19.57 0 0 1 23,-9.92 l -0.13,10.49 4.38,-8.66 a 19.53,19.53 0 0 1 9.76,16 19.17,19.17 0 0 1 -0.43,5.05 v 0 c 0,0.14 -0.08,0.27 -0.11,0.41 -0.03,0.14 -0.13,0.52 -0.2,0.77 -0.07,0.25 -0.19,0.65 -0.3,1 -0.11,0.35 -0.16,0.48 -0.25,0.72 -0.09,0.24 -0.29,0.68 -0.44,1 -0.09,0.19 -0.17,0.39 -0.26,0.59 -0.25,0.5 -0.52,1 -0.81,1.48 -0.1,0.17 -0.22,0.33 -0.32,0.49 -0.21,0.32 -0.42,0.65 -0.65,1 -0.23,0.35 -0.29,0.38 -0.44,0.56 -0.15,0.18 -0.43,0.54 -0.66,0.8 -0.23,0.26 -0.33,0.36 -0.5,0.54 -0.17,0.18 -0.48,0.5 -0.74,0.74 l -0.51,0.48 -0.89,0.74 -0.46,0.36 c -0.47,0.34 -0.94,0.66 -1.44,1 l -0.28,0.16 a 14.09,14.09 0 0 1 -1.27,0.69 l -0.56,0.25 c -0.35,0.16 -0.71,0.32 -1.08,0.45 l -0.64,0.23 c -0.36,0.13 -0.72,0.24 -1.09,0.34 l -0.66,0.17 c -0.4,0.1 -0.81,0.18 -1.22,0.25 h -0.08 q 0.4,7.26 0.72,14.51 a 19.54,19.54 0 0 1 27.14,-8.49 l -3.45,9.48 7.11,-6.83 a 19.49,19.49 0 0 1 6.32,13.5 19.21,19.21 0 0 1 -0.5,5.39 19.55,19.55 0 0 1 -36,5.33 c 0,0.49 0,1 0,1.47 0.13,5.08 0.29,11.4 -2.24,17 a 34.54,34.54 0 0 1 -7.2,9.72 c -1.78,1.81 -3.62,3.56 -5.5,5.26 a 19.66,19.66 0 0 1 -7.07,5.87 q -4.65,3.58 -9.62,6.71 l -1.73,1.26 c -1.86,1.16 -3.77,2.34 -5.64,3.57 l 1,-0.08 a 19.56,19.56 0 0 1 19.25,12.73 l -12.22,10 13.45,-3.12 a 19.59,19.59 0 0 1 -28,17.62 c 0.31,0.37 0.61,0.75 0.91,1.13 l 1.78,2.22 c 8,10.08 10.17,19.64 6.23,26.93 l -4.79,-2.59 c 3.83,-7.1 -1.93,-16.18 -5.71,-21 -0.57,-0.73 -1.16,-1.46 -1.75,-2.19 -5.08,-6.31 -10.84,-13.47 -10.7,-22.25 0.1,-13.24 12.95,-21.2 23.27,-27.59 z"
       transform="translate(-173.11,-87)"
       fill="#f1f1f1"
       id="path1578" />
    <path
       d="m 779.43,605.39 -3.07,-1.92 c -0.3,-0.18 -0.59,-0.37 -0.88,-0.56 a 29.29,29.29 0 0 0 3,-57.06 l 0.15,12.07 -6.63,-13.13 h -0.08 a 29.29,29.29 0 0 0 -30.62,27.9 c 0,0.56 0,1.11 0,1.66 a 35,35 0 0 1 -5.79,-8.55 c -2.81,-6.26 -2.86,-13.35 -2.64,-22 0.44,-17.08 1.18,-34.29 2.14,-51.44 a 29.27,29.27 0 0 0 26,-27.71 c 0,-0.9 0,-1.78 0,-2.66 v -0.66 c -0.06,-0.85 -0.14,-1.69 -0.27,-2.52 0,-0.14 0,-0.27 -0.07,-0.41 -0.12,-0.7 -0.27,-1.39 -0.44,-2.08 -0.06,-0.26 -0.12,-0.51 -0.19,-0.77 -0.21,-0.75 -0.43,-1.48 -0.7,-2.21 -0.08,-0.24 -0.18,-0.47 -0.28,-0.71 -0.21,-0.54 -0.43,-1.06 -0.67,-1.58 -0.13,-0.28 -0.25,-0.55 -0.38,-0.82 a 2,2 0 0 1 -0.1,-0.21 v 0 a 29.27,29.27 0 0 0 -24.75,-16 29.61,29.61 0 0 0 -9.64,1.16 l 0.19,15.71 -6.55,-13 a 29.11,29.11 0 0 0 -14,31.56 v 0 c 0,0.2 0.11,0.4 0.16,0.61 0.09,0.39 0.19,0.77 0.29,1.15 0.1,0.38 0.3,1 0.46,1.45 0.16,0.45 0.24,0.72 0.38,1.07 0.19,0.52 0.42,1 0.65,1.53 0.13,0.3 0.25,0.6 0.39,0.89 0.37,0.75 0.77,1.49 1.21,2.21 0.15,0.26 0.32,0.5 0.48,0.74 0.32,0.49 0.63,1 1,1.44 0.21,0.29 0.44,0.56 0.66,0.84 0.22,0.28 0.65,0.81 1,1.2 l 0.74,0.81 q 0.54,0.57 1.11,1.11 l 0.77,0.71 c 0.43,0.38 0.88,0.75 1.34,1.1 0.23,0.18 0.45,0.37 0.69,0.55 0.69,0.51 1.4,1 2.14,1.44 0.14,0.09 0.29,0.16 0.43,0.24 0.62,0.36 1.25,0.71 1.89,1 l 0.85,0.38 c 0.53,0.24 1.06,0.47 1.61,0.67 0.32,0.13 0.64,0.24 1,0.35 0.54,0.18 1.09,0.35 1.64,0.5 l 1,0.26 c 0.61,0.14 1.22,0.26 1.83,0.37 H 727 q -0.62,10.86 -1.08,21.72 a 29.27,29.27 0 0 0 -40.65,-12.7 l 5.18,14.18 -10.65,-10.22 a 29.13,29.13 0 0 0 -9.46,20.22 28.75,28.75 0 0 0 0.74,8.07 29.27,29.27 0 0 0 53.85,8 c 0,0.74 0,1.48 -0.07,2.21 -0.19,7.61 -0.44,17.07 3.35,25.52 2.57,5.73 6.71,10.37 10.79,14.54 q 4,4.08 8.24,7.88 a 29.31,29.31 0 0 0 10.57,8.8 q 7,5.35 14.42,10 l 3.1,1.92 c 2.78,1.73 5.64,3.51 8.44,5.35 -0.49,0 -1,-0.1 -1.48,-0.12 a 29.28,29.28 0 0 0 -28.83,19.06 l 18.29,14.89 -20.13,-4.66 a 29.32,29.32 0 0 0 42,26.38 c -0.46,0.56 -0.91,1.12 -1.36,1.69 -0.9,1.12 -1.8,2.23 -2.67,3.33 -11.91,15.09 -15.22,29.4 -9.33,40.32 l 7.18,-3.87 c -5.74,-10.63 2.89,-24.23 8.55,-31.39 0.85,-1.09 1.73,-2.18 2.62,-3.28 7.61,-9.45 16.23,-20.17 16,-33.31 -0.49,-19.71 -19.72,-31.6 -35.18,-41.21 z"
       transform="translate(-173.11,-87)"
       fill="#f1f1f1"
       id="path1580" />
  </g>
  <g
     id="g1131"
     transform="matrix(0.59051769,0,0,0.59051769,72.104383,-52.428833)">
    <ellipse
       cx="319.80051"
       cy="448.30621"
       rx="277"
       ry="54"
       fill="#3f3d56"
       id="ellipse4" />
    <g
       id="g2054"
       transform="matrix(0.5059132,-0.17107332,0.17107332,0.5059132,-129.0778,258.79175)">
      <polygon
         points="708.2,673.2 669.8,699.15 483.33,620.74 501,549.28 501.94,545.52 511.4,507.27 511.42,507.18 568.82,500 744.61,561.58 731.21,602.65 730.63,604.44 "
         fill="#f8ce6d"
         id="polygon1994"
         transform="translate(390.13077,-64.97421)" />
      <polygon
         points="568.82,500 744.61,561.58 708.2,673.2 669.8,699.15 705.05,577.34 511.4,507.27 511.42,507.18 "
         opacity="0.1"
         id="polygon1996"
         transform="translate(390.13077,-64.97421)" />
      <polygon
         points="713.85,556.72 710.11,558.68 579.18,512.51 553.24,514.93 550.15,513.05 581.13,509.8 "
         opacity="0.1"
         id="polygon1998"
         transform="translate(390.13077,-64.97421)" />
      <polyline
         points="731.21 602.65 692.45 620.88 501.94 545.52 501 549.28 691.68 623.56 730.63 604.44"
         opacity="0.1"
         id="polyline2000"
         transform="translate(390.13077,-64.97421)" />
      <ellipse
         cx="-176.80795"
         cy="1005.8793"
         rx="6.6700001"
         ry="7.1999998"
         transform="rotate(-72.75)"
         fill="#3f3d56"
         id="ellipse2002" />
      <ellipse
         cx="-189.10533"
         cy="1185.5167"
         rx="6.6700001"
         ry="7.1999998"
         transform="rotate(-72.75)"
         fill="#3f3d56"
         id="ellipse2004" />
      <ellipse
         cx="-274.08685"
         cy="1184.1187"
         rx="6.6700001"
         ry="7.1999998"
         transform="rotate(-72.75)"
         fill="#3f3d56"
         id="ellipse2006" />
      <ellipse
         cx="-257.4028"
         cy="1009.3938"
         rx="6.6700001"
         ry="7.1999998"
         transform="rotate(-72.75)"
         fill="#3f3d56"
         id="ellipse2008" />
      <path
         d="m 924.24077,446.40579 c -0.4,1.3 -3.61,0 -7.69,-1.28 -4.08,-1.28 -7.26,-2.68 -6.86,-4 0.4,-1.32 4.24,-2 8.32,-0.73 4.08,1.27 6.64,4.71 6.23,6.01 z"
         fill="#3f3d56"
         id="path2010" />
      <ellipse
         cx="-141.68456"
         cy="1026.2549"
         rx="2.46"
         ry="7.02"
         transform="rotate(-72.75)"
         fill="#3f3d56"
         id="ellipse2012" />
      <path
         d="m 1010.6008,478.02579 c -0.4,1.3 -4.41,0.1 -8.3,-1.11 -3.89003,-1.21 -6.92003,-2.56 -6.52003,-3.86 0.4,-1.3 4.09,-2 8.00003,-0.83 3.91,1.17 7.24,4.48 6.82,5.8 z"
         fill="#3f3d56"
         id="path2014" />
      <path
         d="m 1093.5608,507.81579 c -0.45,1.46 -4.71,0.19 -8.84,-1.09 -4.13,-1.28 -7.34,-2.75 -6.89,-4.21 0.45,-1.46 4.4,-2.35 8.53,-1.07 4.13,1.28 7.66,4.91 7.2,6.37 z"
         fill="#3f3d56"
         id="path2016" />
      <path
         d="m 1117.8208,504.31579 c -0.46,1.46 -4.71,0.19 -8.84,-1.09 -4.13,-1.28 -7.35,-2.75 -6.89,-4.21 0.46,-1.46 4.4,-2.35 8.53,-1.07 4.13,1.28 7.65,4.91 7.2,6.37 z"
         fill="#3f3d56"
         id="path2018" />
      <path
         d="m 1129.7808,497.18579 c -0.46,1.46 -4,0.42 -7.38,-0.64 -3.38,-1.06 -6,-2.34 -5.59,-3.8 0.41,-1.46 3.82,-2.54 7.23,-1.48 3.41,1.06 6.19,4.46 5.74,5.92 z"
         fill="#3f3d56"
         id="path2020" />
      <path
         d="m 1049.6708,467.96579 c -0.36,1.16 -4,0.09 -7.46,-1 -3.46,-1.09 -6.23,-2.31 -5.86,-3.47 0.37,-1.16 3.67,-1.83 7.17,-0.75 3.5,1.08 6.5,4.05 6.15,5.22 z"
         fill="#3f3d56"
         id="path2022" />
      <ellipse
         cx="-132.55281"
         cy="1052.6836"
         rx="2.46"
         ry="6.0599999"
         transform="rotate(-72.75)"
         fill="#3f3d56"
         id="ellipse2024" />
      <path
         d="m 1008.0208,517.27579 a 6.32,6.32 0 0 0 -2.9,-7.36 6.43,6.43 0 0 0 1.31,-2.33 6.32,6.32 0 0 0 -7.24003,-8.08 6.32,6.32 0 0 0 -11.34,-5.25 6.32,6.32 0 0 0 -9.74,3.25 c 0,0.14 -0.07,0.27 -0.1,0.4 l -0.22,0.11 a 6.32,6.32 0 1 0 -6.11,10.73 5.65,5.65 0 0 0 1,0.22 l 0.08,2.32 30.26003,12.37 -0.2,-2 a 6.34,6.34 0 0 0 5.2,-4.38 z"
         opacity="0.1"
         id="path2026" />
      <path
         d="m 1000.9508,537.13579 a 6.33,6.33 0 0 1 -7.20003,3.29 6.18,6.18 0 0 1 -0.67,2.58 6.32,6.32 0 0 1 -8.49,2.81 6.43,6.43 0 0 1 -2.33,-2 6.32,6.32 0 0 1 -11.8,-4.09 6.42,6.42 0 0 1 -2,-0.62 6.32,6.32 0 0 1 -2.81,-8.48 l 0.2,-0.37 -0.08,-0.23 a 6.25,6.25 0 0 1 -2.63,-0.67 6.3505216,6.3505216 0 0 1 5.74,-11.33 6.59,6.59 0 0 1 0.85,0.51 l 1.66,-1.61 30.44003,12.17 -1.53,1.3 a 6.32,6.32 0 0 1 0.65,6.74 z"
         opacity="0.1"
         id="path2028" />
      <path
         d="m 982.37077,503.66579 -7.35,23.82 a 7.16,7.16 0 0 0 4.33,8.83 v 0 a 7.15,7.15 0 0 0 9.32,-4.58 l 7.35,-23.83 a 7.14,7.14 0 0 0 -5.08,-9 v 0 a 7.14,7.14 0 0 0 -8.57,4.76 z"
         opacity="0.1"
         id="path2030" />
      <path
         d="m 982.69077,505.11579 -6.67,21.36 a 6.4,6.4 0 0 0 3.89,7.91 v 0 a 6.41,6.41 0 0 0 8.35,-4.11 l 6.63,-21.37 a 6.42,6.42 0 0 0 -4.56,-8.12 v 0 a 6.42,6.42 0 0 0 -7.64,4.33 z"
         fill="#3f3d56"
         id="path2032" />
    </g>
    <path
       d="m 98.07049,435.3062 c 0,0 -51.36,-13.81 -61.05,-12.79 -9.69,1.02 14.68,-47.36 30.91,-41.46 16.23,5.9 37.87,21.42 50.24,-0.5 12.37,-21.92 19.31,-33.72 34.38,-32.54 15.07,1.18 35.94,-9.43 51,0 15.06,9.43 25.64,21.06 46.44,20.56 20.8,-0.5 40.52,-47.69 56.72,-28.81 16.2,18.88 35.63,36.15 50.86,29.87 15.23,-6.28 32.61,3.16 46.52,13.78 13.91,10.62 38.26,5.9 47.53,-2.36 9.27,-8.26 16.24,-14.16 35.94,-13 19.7,1.16 82.31,15.34 105.5,33 23.19,17.66 -30.14,40.12 -55.65,40.12 -25.51,0 -30.14,7.08 -52.17,17.7 -22.03,10.62 -58,-5.9 -83.47,11.8 -25.47,17.7 -58,-9.44 -102,0 -44,9.44 -34.78,22.41 -60.29,13 -25.51,-9.41 -16.23,-13 -53.33,-15.34 -37.1,-2.34 -77.67,5.9 -81.15,-9.44 -3.48,-15.34 -26.64,-18.88 -40.56,-23.6 -13.92,-4.72 33.63,0.01 33.63,0.01 z"
       fill="#3f3d56"
       id="path6"
       style="fill:#666666" />
    <polygon
       points="744.61,561.58 731.21,602.65 730.63,604.44 708.2,673.2 669.8,699.15 483.33,620.74 501,549.28 501.94,545.52 511.4,507.27 511.42,507.18 568.82,500 "
       fill="#f8ce6d"
       id="polygon14"
       transform="translate(34.820492,-223.6938)" />
    <polygon
       points="568.82,500 744.61,561.58 708.2,673.2 669.8,699.15 705.05,577.34 511.4,507.27 511.42,507.18 "
       opacity="0.1"
       id="polygon16"
       transform="translate(34.820492,-223.6938)" />
    <polygon
       points="550.15,513.05 581.13,509.8 713.85,556.72 710.11,558.68 579.18,512.51 553.24,514.93 "
       opacity="0.1"
       id="polygon18"
       transform="translate(34.820492,-223.6938)" />
    <polyline
       points="731.21 602.65 692.45 620.88 501.94 545.52 501 549.28 691.68 623.56 730.63 604.44"
       opacity="0.1"
       id="polyline20"
       transform="translate(34.820492,-223.6938)" />
    <ellipse
       cx="-130.59184"
       cy="619.48395"
       rx="6.6700001"
       ry="7.1999998"
       transform="rotate(-72.75)"
       fill="#3f3d56"
       id="ellipse22" />
    <ellipse
       cx="-142.88922"
       cy="799.12134"
       rx="6.6700001"
       ry="7.1999998"
       transform="rotate(-72.75)"
       fill="#3f3d56"
       id="ellipse24" />
    <ellipse
       cx="-227.87074"
       cy="797.72327"
       rx="6.6700001"
       ry="7.1999998"
       transform="rotate(-72.75)"
       fill="#3f3d56"
       id="ellipse26" />
    <ellipse
       cx="-211.18669"
       cy="622.99841"
       rx="6.6700001"
       ry="7.1999998"
       transform="rotate(-72.75)"
       fill="#3f3d56"
       id="ellipse28-5" />
    <path
       d="m 568.93049,287.6862 c -0.4,1.3 -3.61,0 -7.69,-1.28 -4.08,-1.28 -7.26,-2.68 -6.86,-4 0.4,-1.32 4.24,-2 8.32,-0.73 4.08,1.27 6.64,4.71 6.23,6.01 z"
       fill="#3f3d56"
       id="path30" />
    <ellipse
       cx="-95.468445"
       cy="639.85956"
       rx="2.46"
       ry="7.02"
       transform="rotate(-72.75)"
       fill="#3f3d56"
       id="ellipse32-6" />
    <path
       d="m 655.29049,319.3062 c -0.4,1.3 -4.41,0.1 -8.3,-1.11 -3.89,-1.21 -6.92,-2.56 -6.52,-3.86 0.4,-1.3 4.09,-2 8,-0.83 3.91,1.17 7.24,4.48 6.82,5.8 z"
       fill="#3f3d56"
       id="path34" />
    <path
       d="m 738.25049,349.0962 c -0.45,1.46 -4.71,0.19 -8.84,-1.09 -4.13,-1.28 -7.34,-2.75 -6.89,-4.21 0.45,-1.46 4.4,-2.35 8.53,-1.07 4.13,1.28 7.66,4.91 7.2,6.37 z"
       fill="#3f3d56"
       id="path36" />
    <path
       d="m 762.51049,345.5962 c -0.46,1.46 -4.71,0.19 -8.84,-1.09 -4.13,-1.28 -7.35,-2.75 -6.89,-4.21 0.46,-1.46 4.4,-2.35 8.53,-1.07 4.13,1.28 7.65,4.91 7.2,6.37 z"
       fill="#3f3d56"
       id="path38-2" />
    <path
       d="m 774.47049,338.4662 c -0.46,1.46 -4,0.42 -7.38,-0.64 -3.38,-1.06 -6,-2.34 -5.59,-3.8 0.41,-1.46 3.82,-2.54 7.23,-1.48 3.41,1.06 6.19,4.46 5.74,5.92 z"
       fill="#3f3d56"
       id="path40-9" />
    <path
       d="m 694.36049,309.2462 c -0.36,1.16 -4,0.09 -7.46,-1 -3.46,-1.09 -6.23,-2.31 -5.86,-3.47 0.37,-1.16 3.67,-1.83 7.17,-0.75 3.5,1.08 6.5,4.05 6.15,5.22 z"
       fill="#3f3d56"
       id="path42" />
    <ellipse
       cx="-86.3367"
       cy="666.28827"
       rx="2.46"
       ry="6.0599999"
       transform="rotate(-72.75)"
       fill="#3f3d56"
       id="ellipse44" />
    <path
       d="m 652.71049,358.5562 a 6.32,6.32 0 0 0 -2.9,-7.36 6.43,6.43 0 0 0 1.31,-2.33 6.32,6.32 0 0 0 -7.24,-8.08 6.32,6.32 0 0 0 -11.34,-5.25 6.32,6.32 0 0 0 -9.74,3.25 c 0,0.14 -0.07,0.27 -0.1,0.4 l -0.22,0.11 a 6.32,6.32 0 1 0 -6.11,10.73 5.65,5.65 0 0 0 1,0.22 l 0.08,2.32 30.26,12.37 -0.2,-2 a 6.34,6.34 0 0 0 5.2,-4.38 z"
       opacity="0.1"
       id="path46" />
    <path
       d="m 645.64049,378.4162 a 6.33,6.33 0 0 1 -7.2,3.29 6.18,6.18 0 0 1 -0.67,2.58 6.32,6.32 0 0 1 -8.49,2.81 6.43,6.43 0 0 1 -2.33,-2 6.32,6.32 0 0 1 -11.8,-4.09 6.42,6.42 0 0 1 -2,-0.62 6.32,6.32 0 0 1 -2.81,-8.48 l 0.2,-0.37 -0.08,-0.23 a 6.25,6.25 0 0 1 -2.63,-0.67 6.3505216,6.3505216 0 0 1 5.74,-11.33 6.59,6.59 0 0 1 0.85,0.51 l 1.66,-1.61 30.44,12.17 -1.53,1.3 a 6.32,6.32 0 0 1 0.65,6.74 z"
       opacity="0.1"
       id="path48" />
    <path
       d="m 627.06049,344.9462 -7.35,23.82 a 7.16,7.16 0 0 0 4.33,8.83 v 0 a 7.15,7.15 0 0 0 9.32,-4.58 l 7.35,-23.83 a 7.14,7.14 0 0 0 -5.08,-9 v 0 a 7.14,7.14 0 0 0 -8.57,4.76 z"
       opacity="0.1"
       id="path50-1" />
    <path
       d="m 627.38049,346.3962 -6.67,21.36 a 6.4,6.4 0 0 0 3.89,7.91 v 0 a 6.41,6.41 0 0 0 8.35,-4.11 l 6.63,-21.37 a 6.42,6.42 0 0 0 -4.56,-8.12 v 0 a 6.42,6.42 0 0 0 -7.64,4.33 z"
       fill="#3f3d56"
       id="path52" />
    <g
       id="g1903"
       transform="matrix(-0.429926,0,0,0.429926,1046.8657,209.72743)">
      <polygon
         points="744.61,561.58 731.21,602.65 730.63,604.44 708.2,673.2 669.8,699.15 483.33,620.74 501,549.28 501.94,545.52 511.4,507.27 511.42,507.18 568.82,500 "
         fill="#f8ce6d"
         id="polygon14-9"
         transform="translate(676.5418,-79.22997)" />
      <polygon
         points="705.05,577.34 511.4,507.27 511.42,507.18 568.82,500 744.61,561.58 708.2,673.2 669.8,699.15 "
         opacity="0.1"
         id="polygon16-3"
         transform="translate(676.5418,-79.22997)" />
      <polygon
         points="553.24,514.93 550.15,513.05 581.13,509.8 713.85,556.72 710.11,558.68 579.18,512.51 "
         opacity="0.1"
         id="polygon18-6"
         transform="translate(676.5418,-79.22997)" />
      <polyline
         points="731.21 602.65 692.45 620.88 501.94 545.52 501 549.28 691.68 623.56 730.63 604.44"
         opacity="0.1"
         id="polyline20-0"
         transform="translate(676.5418,-79.22997)" />
      <ellipse
         cx="-78.260635"
         cy="1275.1802"
         rx="6.6700001"
         ry="7.1999998"
         transform="rotate(-72.75)"
         fill="#3f3d56"
         id="ellipse22-6" />
      <ellipse
         cx="-90.558014"
         cy="1454.8175"
         rx="6.6700001"
         ry="7.1999998"
         transform="rotate(-72.75)"
         fill="#3f3d56"
         id="ellipse24-2" />
      <ellipse
         cx="-175.53954"
         cy="1453.4194"
         rx="6.6700001"
         ry="7.1999998"
         transform="rotate(-72.75)"
         fill="#3f3d56"
         id="ellipse26-6" />
      <ellipse
         cx="-158.85548"
         cy="1278.6946"
         rx="6.6700001"
         ry="7.1999998"
         transform="rotate(-72.75)"
         fill="#3f3d56"
         id="ellipse28-5-1" />
      <path
         d="m 1210.6518,432.15003 c -0.4,1.3 -3.61,0 -7.69,-1.28 -4.08,-1.28 -7.26,-2.68 -6.86,-4 0.4,-1.32 4.24,-2 8.32,-0.73 4.08,1.27 6.64,4.71 6.23,6.01 z"
         fill="#3f3d56"
         id="path30-8" />
      <ellipse
         cx="-43.137238"
         cy="1295.5558"
         rx="2.46"
         ry="7.02"
         transform="rotate(-72.75)"
         fill="#3f3d56"
         id="ellipse32-6-7" />
      <path
         d="m 1297.0118,463.77003 c -0.4,1.3 -4.41,0.1 -8.3,-1.11 -3.89,-1.21 -6.92,-2.56 -6.52,-3.86 0.4,-1.3 4.09,-2 8,-0.83 3.91,1.17 7.24,4.48 6.82,5.8 z"
         fill="#3f3d56"
         id="path34-9" />
      <path
         d="m 1379.9718,493.56003 c -0.45,1.46 -4.71,0.19 -8.84,-1.09 -4.13,-1.28 -7.34,-2.75 -6.89,-4.21 0.45,-1.46 4.4,-2.35 8.53,-1.07 4.13,1.28 7.66,4.91 7.2,6.37 z"
         fill="#3f3d56"
         id="path36-2" />
      <path
         d="m 1404.2318,490.06003 c -0.46,1.46 -4.71,0.19 -8.84,-1.09 -4.13,-1.28 -7.35,-2.75 -6.89,-4.21 0.46,-1.46 4.4,-2.35 8.53,-1.07 4.13,1.28 7.65,4.91 7.2,6.37 z"
         fill="#3f3d56"
         id="path38-2-0" />
      <path
         d="m 1416.1918,482.93003 c -0.46,1.46 -4,0.42 -7.38,-0.64 -3.38,-1.06 -6,-2.34 -5.59,-3.8 0.41,-1.46 3.82,-2.54 7.23,-1.48 3.41,1.06 6.19,4.46 5.74,5.92 z"
         fill="#3f3d56"
         id="path40-9-2" />
      <path
         d="m 1336.0818,453.71003 c -0.36,1.16 -4,0.09 -7.46,-1 -3.46,-1.09 -6.23,-2.31 -5.86,-3.47 0.37,-1.16 3.67,-1.83 7.17,-0.75 3.5,1.08 6.5,4.05 6.15,5.22 z"
         fill="#3f3d56"
         id="path42-3" />
      <ellipse
         cx="-34.005493"
         cy="1321.9845"
         rx="2.46"
         ry="6.0599999"
         transform="rotate(-72.75)"
         fill="#3f3d56"
         id="ellipse44-7" />
      <path
         d="m 1294.4318,503.02003 a 6.32,6.32 0 0 0 -2.9,-7.36 6.43,6.43 0 0 0 1.31,-2.33 6.32,6.32 0 0 0 -7.24,-8.08 6.32,6.32 0 0 0 -11.34,-5.25 6.32,6.32 0 0 0 -9.74,3.25 c 0,0.14 -0.07,0.27 -0.1,0.4 l -0.22,0.11 a 6.32,6.32 0 1 0 -6.11,10.73 5.65,5.65 0 0 0 1,0.22 l 0.08,2.32 30.26,12.37 -0.2,-2 a 6.34,6.34 0 0 0 5.2,-4.38 z"
         opacity="0.1"
         id="path46-5" />
      <path
         d="m 1287.3618,522.88003 a 6.33,6.33 0 0 1 -7.2,3.29 6.18,6.18 0 0 1 -0.67,2.58 6.32,6.32 0 0 1 -8.49,2.81 6.43,6.43 0 0 1 -2.33,-2 6.32,6.32 0 0 1 -11.8,-4.09 6.42,6.42 0 0 1 -2,-0.62 6.32,6.32 0 0 1 -2.81,-8.48 l 0.2,-0.37 -0.08,-0.23 a 6.25,6.25 0 0 1 -2.63,-0.67 6.3505216,6.3505216 0 0 1 5.74,-11.33 6.59,6.59 0 0 1 0.85,0.51 l 1.66,-1.61 30.44,12.17 -1.53,1.3 a 6.32,6.32 0 0 1 0.65,6.74 z"
         opacity="0.1"
         id="path48-9" />
      <path
         d="m 1268.7818,489.41003 -7.35,23.82 a 7.16,7.16 0 0 0 4.33,8.83 v 0 a 7.15,7.15 0 0 0 9.32,-4.58 l 7.35,-23.83 a 7.14,7.14 0 0 0 -5.08,-9 v 0 a 7.14,7.14 0 0 0 -8.57,4.76 z"
         opacity="0.1"
         id="path50-1-2" />
      <path
         d="m 1269.1018,490.86003 -6.67,21.36 a 6.4,6.4 0 0 0 3.89,7.91 v 0 a 6.41,6.41 0 0 0 8.35,-4.11 l 6.63,-21.37 a 6.42,6.42 0 0 0 -4.56,-8.12 v 0 a 6.42,6.42 0 0 0 -7.64,4.33 z"
         fill="#3f3d56"
         id="path52-2" />
    </g>
    <path
       d="m 540.43049,456.7962 c 0,0 -34.61,-9.16 -41.13,-8.48 -6.52,0.68 9.89,-31.35 20.82,-27.44 10.93,3.91 25.52,14.17 33.85,-0.34 8.33,-14.51 13,-22.31 23.17,-21.53 10.17,0.78 24.21,-6.25 34.36,0 10.15,6.25 17.27,13.93 31.29,13.6 14.02,-0.33 27.29,-31.57 38.23,-19.07 10.94,12.5 24,23.93 34.26,19.78 10.26,-4.15 22,2.09 31.34,9.12 9.34,7.03 25.78,3.9 32,-1.56 6.22,-5.46 10.93,-9.38 24.21,-8.6 13.28,0.78 55.45,10.16 71.07,21.87 15.62,11.71 -20.3,26.56 -37.49,26.56 -17.19,0 -20.3,4.68 -35.14,11.71 -14.84,7.03 -39.06,-3.9 -56.24,7.81 -17.18,11.71 -39.05,-6.24 -68.73,0 -29.68,6.24 -23.43,14.84 -40.61,8.6 -17.18,-6.24 -10.94,-8.6 -35.93,-10.16 -24.99,-1.56 -52.33,3.91 -54.67,-6.25 -2.34,-10.16 -17.95,-12.49 -27.33,-15.62 -9.38,-3.13 22.67,0 22.67,0 z"
       fill="#3f3d56"
       id="path54" />
  </g>
  <g
     id="g1166"
     transform="translate(87.415879,-45.77123)">
    <path
       d="m 479.79658,331.15406 h -166 a 5.0058,5.0058 0 0 1 -5,-5 v -56 a 5.00581,5.00581 0 0 1 5,-5 h 166 a 5.00573,5.00573 0 0 1 5,5 v 56 a 5.00573,5.00573 0 0 1 -5,5 z"
       transform="translate(-251.25787,-219.38283)"
       fill="#3f3d56"
       id="path40" />
    <rect
       x="83.538712"
       y="60.77124"
       width="44"
       height="5"
       fill="#ffffff"
       id="rect42" />
    <circle
       cx="185.53871"
       cy="63.77124"
       r="3"
       fill="#ffa200"
       id="circle44" />
    <circle
       cx="195.53871"
       cy="63.77124"
       r="3"
       fill="#ffa200"
       id="circle46" />
    <circle
       cx="205.53871"
       cy="63.77124"
       r="3"
       fill="#ffa200"
       id="circle48" />
    <path
       d="m 479.79658,402.15406 h -166 a 5.0058,5.0058 0 0 1 -5,-5 v -56 a 5.00581,5.00581 0 0 1 5,-5 h 166 a 5.00573,5.00573 0 0 1 5,5 v 56 a 5.00573,5.00573 0 0 1 -5,5 z"
       transform="translate(-251.25787,-219.38283)"
       fill="#3f3d56"
       id="path50" />
    <rect
       x="83.538712"
       y="131.77124"
       width="44"
       height="5"
       fill="#ffffff"
       id="rect52" />
    <circle
       cx="185.53871"
       cy="134.77124"
       r="3"
       fill="#ffa200"
       id="circle54" />
    <circle
       cx="195.53871"
       cy="134.77124"
       r="3"
       fill="#ffa200"
       id="circle56" />
    <circle
       cx="205.53871"
       cy="134.77124"
       r="3"
       fill="#ffa200"
       id="circle58" />
    <path
       d="m 479.79658,473.15406 h -166 a 5.0058,5.0058 0 0 1 -5,-5 v -56 a 5.00581,5.00581 0 0 1 5,-5 h 166 a 5.00573,5.00573 0 0 1 5,5 v 56 a 5.00573,5.00573 0 0 1 -5,5 z"
       transform="translate(-251.25787,-219.38283)"
       fill="#3f3d56"
       id="path60" />
    <rect
       x="83.538712"
       y="202.77124"
       width="44"
       height="5"
       fill="#ffffff"
       id="rect62" />
    <circle
       cx="185.53871"
       cy="205.77124"
       r="3"
       fill="#ffa200"
       id="circle64" />
    <circle
       cx="195.53871"
       cy="205.77124"
       r="3"
       fill="#ffa200"
       id="circle66" />
    <circle
       cx="205.53871"
       cy="205.77124"
       r="3"
       fill="#ffa200"
       id="circle68" />
  </g>
  <g
     id="g2076"
     transform="matrix(-0.40882255,-0.12598442,-0.12598442,0.40882255,642.65849,112.55601)">
    <polygon
       points="501,549.28 501.94,545.52 511.4,507.27 511.42,507.18 568.82,500 744.61,561.58 731.21,602.65 730.63,604.44 708.2,673.2 669.8,699.15 483.33,620.74 "
       fill="#f8ce6d"
       id="polygon14-8"
       transform="translate(390.13077,-64.97421)" />
    <polygon
       points="669.8,699.15 705.05,577.34 511.4,507.27 511.42,507.18 568.82,500 744.61,561.58 708.2,673.2 "
       opacity="0.1"
       id="polygon16-9"
       transform="translate(390.13077,-64.97421)" />
    <polygon
       points="553.24,514.93 550.15,513.05 581.13,509.8 713.85,556.72 710.11,558.68 579.18,512.51 "
       opacity="0.1"
       id="polygon18-7"
       transform="translate(390.13077,-64.97421)" />
    <polyline
       points="731.21 602.65 692.45 620.88 501.94 545.52 501 549.28 691.68 623.56 730.63 604.44"
       opacity="0.1"
       id="polyline20-3"
       transform="translate(390.13077,-64.97421)" />
    <ellipse
       cx="-176.80795"
       cy="1005.8793"
       rx="6.6700001"
       ry="7.1999998"
       transform="rotate(-72.75)"
       fill="#3f3d56"
       id="ellipse22-61" />
    <ellipse
       cx="-189.10533"
       cy="1185.5167"
       rx="6.6700001"
       ry="7.1999998"
       transform="rotate(-72.75)"
       fill="#3f3d56"
       id="ellipse24-29" />
    <ellipse
       cx="-274.08685"
       cy="1184.1187"
       rx="6.6700001"
       ry="7.1999998"
       transform="rotate(-72.75)"
       fill="#3f3d56"
       id="ellipse26-3" />
    <ellipse
       cx="-257.4028"
       cy="1009.3938"
       rx="6.6700001"
       ry="7.1999998"
       transform="rotate(-72.75)"
       fill="#3f3d56"
       id="ellipse28-5-19" />
    <path
       d="m 924.24077,446.40579 c -0.4,1.3 -3.61,0 -7.69,-1.28 -4.08,-1.28 -7.26,-2.68 -6.86,-4 0.4,-1.32 4.24,-2 8.32,-0.73 4.08,1.27 6.64,4.71 6.23,6.01 z"
       fill="#3f3d56"
       id="path30-4" />
    <ellipse
       cx="-141.68456"
       cy="1026.2549"
       rx="2.46"
       ry="7.02"
       transform="rotate(-72.75)"
       fill="#3f3d56"
       id="ellipse32-6-78" />
    <path
       d="m 1010.6008,478.02579 c -0.4,1.3 -4.41,0.1 -8.3,-1.11 -3.89003,-1.21 -6.92003,-2.56 -6.52003,-3.86 0.4,-1.3 4.09,-2 8.00003,-0.83 3.91,1.17 7.24,4.48 6.82,5.8 z"
       fill="#3f3d56"
       id="path34-4" />
    <path
       d="m 1093.5608,507.81579 c -0.45,1.46 -4.71,0.19 -8.84,-1.09 -4.13,-1.28 -7.34,-2.75 -6.89,-4.21 0.45,-1.46 4.4,-2.35 8.53,-1.07 4.13,1.28 7.66,4.91 7.2,6.37 z"
       fill="#3f3d56"
       id="path36-5" />
    <path
       d="m 1117.8208,504.31579 c -0.46,1.46 -4.71,0.19 -8.84,-1.09 -4.13,-1.28 -7.35,-2.75 -6.89,-4.21 0.46,-1.46 4.4,-2.35 8.53,-1.07 4.13,1.28 7.65,4.91 7.2,6.37 z"
       fill="#3f3d56"
       id="path38-2-03" />
    <path
       d="m 1129.7808,497.18579 c -0.46,1.46 -4,0.42 -7.38,-0.64 -3.38,-1.06 -6,-2.34 -5.59,-3.8 0.41,-1.46 3.82,-2.54 7.23,-1.48 3.41,1.06 6.19,4.46 5.74,5.92 z"
       fill="#3f3d56"
       id="path40-9-6" />
    <path
       d="m 1049.6708,467.96579 c -0.36,1.16 -4,0.09 -7.46,-1 -3.46,-1.09 -6.23,-2.31 -5.86,-3.47 0.37,-1.16 3.67,-1.83 7.17,-0.75 3.5,1.08 6.5,4.05 6.15,5.22 z"
       fill="#3f3d56"
       id="path42-1" />
    <ellipse
       cx="-132.55281"
       cy="1052.6836"
       rx="2.46"
       ry="6.0599999"
       transform="rotate(-72.75)"
       fill="#3f3d56"
       id="ellipse44-0" />
    <path
       d="m 1008.0208,517.27579 a 6.32,6.32 0 0 0 -2.9,-7.36 6.43,6.43 0 0 0 1.31,-2.33 6.32,6.32 0 0 0 -7.24003,-8.08 6.32,6.32 0 0 0 -11.34,-5.25 6.32,6.32 0 0 0 -9.74,3.25 c 0,0.14 -0.07,0.27 -0.1,0.4 l -0.22,0.11 a 6.32,6.32 0 1 0 -6.11,10.73 5.65,5.65 0 0 0 1,0.22 l 0.08,2.32 30.26003,12.37 -0.2,-2 a 6.34,6.34 0 0 0 5.2,-4.38 z"
       opacity="0.1"
       id="path46-6" />
    <path
       d="m 1000.9508,537.13579 a 6.33,6.33 0 0 1 -7.20003,3.29 6.18,6.18 0 0 1 -0.67,2.58 6.32,6.32 0 0 1 -8.49,2.81 6.43,6.43 0 0 1 -2.33,-2 6.32,6.32 0 0 1 -11.8,-4.09 6.42,6.42 0 0 1 -2,-0.62 6.32,6.32 0 0 1 -2.81,-8.48 l 0.2,-0.37 -0.08,-0.23 a 6.25,6.25 0 0 1 -2.63,-0.67 6.3505216,6.3505216 0 0 1 5.74,-11.33 6.59,6.59 0 0 1 0.85,0.51 l 1.66,-1.61 30.44003,12.17 -1.53,1.3 a 6.32,6.32 0 0 1 0.65,6.74 z"
       opacity="0.1"
       id="path48-3" />
    <path
       d="m 982.37077,503.66579 -7.35,23.82 a 7.16,7.16 0 0 0 4.33,8.83 v 0 a 7.15,7.15 0 0 0 9.32,-4.58 l 7.35,-23.83 a 7.14,7.14 0 0 0 -5.08,-9 v 0 a 7.14,7.14 0 0 0 -8.57,4.76 z"
       opacity="0.1"
       id="path50-1-20" />
    <path
       d="m 982.69077,505.11579 -6.67,21.36 a 6.4,6.4 0 0 0 3.89,7.91 v 0 a 6.41,6.41 0 0 0 8.35,-4.11 l 6.63,-21.37 a 6.42,6.42 0 0 0 -4.56,-8.12 v 0 a 6.42,6.42 0 0 0 -7.64,4.33 z"
       fill="#3f3d56"
       id="path52-6" />
  </g>
  <g
     id="g984"
     transform="translate(-68.675171,-66.403824)">
    <ellipse
       cx="432.72382"
       cy="477.01587"
       rx="21.533689"
       ry="6.7600698"
       transform="rotate(-25.37426,-3.0875239,973.89229)"
       fill="#2f2e41"
       id="ellipse951" />
    <ellipse
       cx="338.40851"
       cy="504.47739"
       rx="21.533689"
       ry="6.7600698"
       transform="rotate(-50.06163,62.278763,708.07453)"
       fill="#2f2e41"
       id="ellipse953" />
    <circle
       cx="129.24591"
       cy="358.1763"
       r="43.067322"
       fill="#2f2e41"
       id="circle955" />
    <rect
       x="111.01711"
       y="391.97583"
       width="13.08374"
       height="23.44171"
       fill="#2f2e41"
       id="rect957" />
    <rect
       x="137.18459"
       y="391.97583"
       width="13.08374"
       height="23.44171"
       fill="#2f2e41"
       id="rect959" />
    <ellipse
       cx="121.92025"
       cy="415.69012"
       rx="10.90314"
       ry="4.0886798"
       fill="#2f2e41"
       id="ellipse961" />
    <ellipse
       cx="148.08772"
       cy="415.14499"
       rx="10.90314"
       ry="4.0886798"
       fill="#2f2e41"
       id="ellipse963" />
    <path
       d="m 397.73848,442.86256 c -3.84558,-15.487 -20.82055,-24.60077 -37.91473,-20.35617 -17.09418,4.2446 -27.83429,20.24029 -23.98871,35.72729 3.84558,15.487 16.60394,15.537 33.69812,11.29236 17.09418,-4.24464 32.05091,-11.17645 28.20532,-26.66348 z"
       transform="translate(-254.96973,-138.8232)"
       fill="#ffa200"
       id="path965" />
    <circle
       cx="135.68452"
       cy="349.08871"
       r="14.35864"
       fill="#ffffff"
       id="circle967" />
    <circle
       cx="136.58591"
       cy="354.94193"
       r="4.7862101"
       fill="#3f3d56"
       id="circle969" />
    <path
       d="m 381.64687,517.82731 a 9.5724413,9.5724413 0 1 0 18.83533,3.42883 v 0 l 0.003,-0.0185 c 0.94178,-5.20215 -3.08038,-7.043 -8.28253,-7.98474 -5.20215,-0.94174 -9.61444,-0.62769 -10.55615,4.5744 z"
       transform="translate(-254.96973,-138.8232)"
       fill="#ffffff"
       id="path971" />
  </g>
  <g
     id="g1275"
     transform="matrix(0.4507165,0,0,0.4507165,9.8622314,136.95897)">
    <path
       d="m 284.74,206.07 c 0,0 -7.63,6.2 -16.64,-10.06 -9.01,-16.26 -52.52,-55.34 -52.52,-55.34 0,0 -5.63,-5.15 15.76,-13.73 21.39,-8.58 50.6,-39.94 50.6,-39.94 0,0 48.74,43.33 53.51,64.79 4.77,21.46 -5.67,25.1 -23.59,36.5 -17.92,11.4 -27.12,17.78 -27.12,17.78 z"
       transform="translate(-173.11,-87)"
       fill="#3f3d56"
       id="path102" />
    <path
       d="m 424.43,413.59 -123,-221.67 10.44,-3.63 L 432.79,409 a 4.79,4.79 0 0 1 -2,6.54 v 0 a 4.77,4.77 0 0 1 -6.36,-1.95 z"
       transform="translate(-173.11,-87)"
       fill="#656380"
       id="path104" />
  </g>
  <g
     id="g1145"
     transform="matrix(0.64678486,0.06228916,-0.06228916,0.64678486,104.62765,-198.72537)">
    <ellipse
       cx="754.99878"
       cy="528.83557"
       rx="21.533689"
       ry="6.7600698"
       transform="rotate(-52.45248,486.61379,718.20817)"
       fill="#2f2e41"
       id="ellipse54" />
    <circle
       cx="544.83624"
       cy="382.53448"
       r="43.067348"
       fill="#2f2e41"
       id="circle56-2" />
    <rect
       x="355.18484"
       y="594.5639"
       width="13.08374"
       height="23.44171"
       fill="#2f2e41"
       id="rect58"
       transform="rotate(-22.058985)" />
    <rect
       x="525.21063"
       y="416.33411"
       width="13.08374"
       height="23.44171"
       fill="#2f2e41"
       id="rect60" />
    <ellipse
       cx="357.36545"
       cy="618.27814"
       rx="10.90314"
       ry="4.0886798"
       fill="#2f2e41"
       id="ellipse62"
       transform="rotate(-22.058985)" />
    <ellipse
       cx="527.39117"
       cy="439.50323"
       rx="10.90314"
       ry="4.0886798"
       fill="#2f2e41"
       id="ellipse64" />
    <circle
       cx="543.74585"
       cy="371.63129"
       r="14.71921"
       fill="#ffffff"
       id="circle66-7" />
    <circle
       cx="542.74585"
       cy="378.63129"
       r="4.9064298"
       fill="#3f3d56"
       id="circle68-0" />
    <path
       d="m 841.58267,481.30618 c 3.47748,-15.57379 -7.63867,-31.31042 -24.82861,-35.1488 -17.18994,-3.83838 -33.94421,5.67511 -37.42169,21.24884 -3.47748,15.57373 7.91492,21.31762 25.10486,25.156 17.18994,3.83838 33.66797,4.31778 37.14544,-11.25604 z"
       transform="translate(-254.96973,-138.8232)"
       fill="#ffa200"
       id="path70" />
    <ellipse
       cx="841.31409"
       cy="539.37421"
       rx="6.7600698"
       ry="21.533689"
       transform="rotate(-25.87116,411.62488,1025.0067)"
       fill="#2f2e41"
       id="ellipse72" />
    <path
       d="m 820.96045,536.89456 c 0,4.21515 -10.85327,12.53857 -22.89657,12.53857 -12.0433,0 -23.33515,-11.867 -23.33515,-16.08209 0,-4.21509 11.29193,0.81775 23.33515,0.81775 12.04322,0 22.89657,-1.48938 22.89657,2.72577 z"
       transform="translate(-254.96973,-138.8232)"
       fill="#ffffff"
       id="path74" />
  </g>
  <text
     xml:space="preserve"
     style="font-size:18.6667px;line-height:0.75;font-family:'Amiri Quran';-inkscape-font-specification:'Amiri Quran';text-align:start;letter-spacing:0px;word-spacing:0px;text-anchor:start;white-space:pre;inline-size:126.248"
     x="145.82614"
     y="221.33774"
     id="text4400"
     transform="rotate(-4.9659114,103.66896,270.60035)"><tspan
       x="145.82614"
       y="221.33774"
       id="tspan25600"><tspan
         style="font-family:'Latin Modern Sans Demi Cond';-inkscape-font-specification:'Latin Modern Sans Demi Cond'"
         id="tspan25598">Data 
</tspan></tspan><tspan
       x="145.82614"
       y="237.05289"
       id="tspan25604"><tspan
         style="font-family:'Latin Modern Sans Demi Cond';-inkscape-font-specification:'Latin Modern Sans Demi Cond'"
         id="tspan25602">treasure</tspan></tspan></text>
</svg>
